# xmcd CD database file
#
# Track frame offsets:
#	150
#	16706
#	32226
#	49434
#
# Disc length: 776 seconds
#
# Revision: 0
# Processed by: cddbd v1.5.2PL0 Copyright (c) Steve Scherf et al.
# Submitted via: CDex 1.51
#
DISCID=2b030604
DTITLE=GP38 - Chris McDaniel - Just Me
DYEAR=2006
DGENRE=Country
TTITLE0=Out Of My Mind
TTITLE1=The Kiss
TTITLE2=She's Got It All
TTITLE3=It Ain't Me
EXTD=YEAR: 2006
EXTT0=
EXTT1=
EXTT2=
EXTT3=
PLAYORDER=
